# xmcd
#
# Track frame offsets:
#	150
#	13584
#	30638
#	44089
#	64208
#	79530
#	92743
#	104730
#	118725
#	132842
#	146970
#	163625
#	177749
#	197794
#	211126
#	224894
#
# Disc length: 3156 seconds
#
# Revision: 0
# Processed by: cddbd v1.4PL0 Copyright (c) Steve Scherf et al.
# Submitted via: audiograbber 1.80
#
DISCID=fc0c5210
DTITLE=Daniel - Meu reino encantado 2
DYEAR=1900
DGENRE=
TTITLE0=Encanto da natureza
TTITLE1=Mundo velho
TTITLE2=Paixão dupla
TTITLE3=Pagode em Brasília.na praça.tudo certo
TTITLE4=Rolinha cabloca
TTITLE5=Versos aos pés do homem
TTITLE6=Moradia
TTITLE7=Cobra venenosa
TTITLE8=Pra tudo se dá um jeito
TTITLE9=Cabelo loiro
TTITLE10=Consagração
TTITLE11=Viúva rica
TTITLE12=Travessia do araguaia
TTITLE13=Tudo é beleza
TTITLE14=Minha vida
TTITLE15=Minas gerais
EXTD=
EXTT0=
EXTT1=
EXTT2=
EXTT3=
EXTT4=
EXTT5=
EXTT6=
EXTT7=
EXTT8=
EXTT9=
EXTT10=
EXTT11=
EXTT12=
EXTT13=
EXTT14=
EXTT15=
PLAYORDER=
